<svg t="1597901989690" class="icon" viewBox="0 0 1024 1024" version="1.1" xmlns="http://www.w3.org/2000/svg" p-id="15366" xmlns:xlink="http://www.w3.org/1999/xlink" width="200" height="200"><defs><style type="text/css"></style></defs><path d="M508.224 714.176a32.32 32.32 0 0 1-11.968-2.304L38.016 527.04a32 32 0 0 1 23.936-59.392l446.144 179.968 436.608-179.84a32 32 0 0 1 24.384 59.2l-448.704 184.768a31.744 31.744 0 0 1-12.16 2.432z" p-id="15367" ></path><path d="M508.224 959.296a32.32 32.32 0 0 1-11.968-2.304l-458.24-184.896a32.064 32.064 0 0 1-17.728-41.664 32.128 32.128 0 0 1 41.664-17.664l446.144 180.032 436.608-179.904a31.936 31.936 0 1 1 24.384 59.072l-448.704 184.896a30.592 30.592 0 0 1-12.16 2.432zM968.384 299.584l-446.72 179.584-0.256 0.064-0.128 0.128a47.488 47.488 0 0 1-35.392 0l-0.32-0.128L38.528 299.584a45.184 45.184 0 0 1-28.608-41.6c0-18.688 11.84-34.752 28.544-41.536L485.312 36.864l0.192-0.064 0.32-0.128a48.256 48.256 0 0 1 35.392 0l0.128 0.128 0.256 0.064 446.72 179.584a44.928 44.928 0 0 1 28.608 41.536 44.8 44.8 0 0 1-28.544 41.6z" p-id="15368"></path></svg>