<svg t="1597910853769" class="icon" viewBox="0 0 1024 1024" version="1.1" xmlns="http://www.w3.org/2000/svg" p-id="29911" width="200" height="200"><path d="M1018.311111 881.777778L557.511111 73.955556C546.133333 62.577778 529.066667 56.888889 512 56.888889c-17.066667 0-34.133333 5.688889-45.511111 22.755555L5.688889 887.466667c-5.688889 5.688889-5.688889 11.377778-5.688889 22.755555 0 34.133333 22.755556 56.888889 56.888889 56.888889h910.222222c34.133333 0 56.888889-22.755556 56.888889-56.888889 0-11.377778-5.688889-28.444444-5.688889-28.444444zM512 853.333333c-34.133333 0-56.888889-22.755556-56.888889-56.888889s22.755556-56.888889 56.888889-56.888888 56.888889 22.755556 56.888889 56.888888-22.755556 56.888889-56.888889 56.888889z m56.888889-284.444444c0 28.444444-28.444444 56.888889-56.888889 56.888889s-56.888889-28.444444-56.888889-56.888889V398.222222c0-28.444444 28.444444-56.888889 56.888889-56.888889s56.888889 28.444444 56.888889 56.888889v170.666667z" fill="" p-id="29912"></path></svg>