<svg t="1597902401834" class="icon" viewBox="0 0 1024 1024" version="1.1" xmlns="http://www.w3.org/2000/svg" p-id="21214" xmlns:xlink="http://www.w3.org/1999/xlink" width="200" height="200"><defs><style type="text/css"></style></defs><path d="M887.83821897 336.03791916h-477.61135997c-55.3023686 0-100.54976068 45.24739209-100.54976069 100.5497607v351.92416019c0 55.3023686 45.24739209 100.54976068 100.54976069 100.5497607h477.61135997c55.3023686 0 100.54976068-45.24739209 100.54976069-100.5497607V436.58767986c0-55.3023686-45.24739209-100.54976068-100.54976069-100.5497607z m50.27488109 427.33648183c0 40.21990457-32.67867255 75.41232014-75.41232017 75.41232015h-427.33648182c-42.73364759 0-75.41232014-35.19241559-75.41232016-75.41232015V461.72512038c0-42.73364759 32.67867255-75.41232014 75.41232016-75.41232013h427.33648182c42.73364759 0 75.41232014 32.67867255 75.41232017 75.41232013v301.64928061z" p-id="21215" ></path><path d="M963.25053912 939.33648035h-804.39808111V197.78199986l103.06350371 103.06350373c10.05497651 10.05497651 27.65118356 10.05497651 35.19241706 0 10.05497651-10.05497651 10.05497651-27.65118356 0-35.1924156l-145.79715278-145.79715277c-2.5137445-2.5137445-2.5137445-5.02748752-5.02748752-5.02748752l-72.89857712-72.89857713c-10.05497651-10.05497651-27.65118356-10.05497651-35.19241558 0-10.05497651 10.05497651-10.05497651 27.65118356 0 35.19241707l67.87108813 67.87108813V964.47392089c0 12.56871953 12.56871953 25.13744054 25.13744054 25.13744056h829.53552165c12.56871953 0 25.13744054-12.56871953 25.13743907-25.13744056s-10.05497651-25.13744054-22.62369605-25.13744054z" p-id="21216" ></path></svg>