<svg t="1597902466687" class="icon" viewBox="0 0 1024 1024" version="1.1" xmlns="http://www.w3.org/2000/svg" p-id="22023" xmlns:xlink="http://www.w3.org/1999/xlink" width="200" height="200"><defs><style type="text/css"></style></defs><path d="M802.304 115.2H221.696c-28.16 0-51.2 23.04-51.2 51.2v215.552c0 28.16 23.04 51.2 51.2 51.2h135.168v70.656c0 17.92 14.848 35.328 35.328 35.328h213.504v50.176h-384c-28.16 0-51.2 23.04-51.2 51.2v215.552c0 28.16 23.04 51.2 51.2 51.2H802.304c28.16 0 51.2-23.04 51.2-51.2v-215.552c0-28.16-23.04-51.2-51.2-51.2h-138.24v-71.168c0-17.92-14.848-35.328-35.328-35.328H415.232v-49.664h387.072c28.16 0 51.2-23.04 51.2-51.2v-215.04c0.512-28.16-23.04-51.712-51.2-51.712z m-166.912 608.768c13.312 0 23.552 10.752 23.552 23.552 0 13.312-10.752 23.552-23.552 23.552H382.464c-13.312 0-23.552-10.752-23.552-23.552 0-13.312 10.752-23.552 23.552-23.552h252.928z m0-419.84H382.464c-13.312 0-23.552-10.752-23.552-23.552 0-13.312 10.752-23.552 23.552-23.552h252.928c13.312 0 23.552 10.752 23.552 23.552 0.512 12.8-10.24 23.552-23.552 23.552z" p-id="22024" ></path></svg>