<svg t="1597902654107" class="icon" viewBox="0 0 1096 1024" version="1.1" xmlns="http://www.w3.org/2000/svg" p-id="26496" xmlns:xlink="http://www.w3.org/1999/xlink" width="214.0625" height="200"><defs><style type="text/css"></style></defs><path d="M300.605714 217.611429h675.428572c25.68 0 46.457143-18.285714 46.457143-52s-20.777143-50.285714-46.457143-50.285715h-675.428572c-25.68 0-46.457143 16.502857-46.457143 50.285715s20.777143 52 46.457143 52z m675.428572 251.782857h-675.428572c-25.68 0-46.457143 20.125714-46.457143 49.942857s20.777143 53.12 46.457143 53.12h675.428572c25.68 0 46.457143-23.211429 46.457143-53.131429s-20.777143-49.942857-46.457143-49.942857z m0 335.28h-675.428572c-25.68 0-46.457143 20.251429-46.457143 50.057143s20.777143 53.485714 46.457143 53.485714h675.428572c25.68 0 46.457143-23.668571 46.457143-53.485714s-20.777143-50.057143-46.457143-50.057143zM127.04 217.611429h-73.142857a51.085714 51.085714 0 1 1 0-102.171429h73.142857a51.085714 51.085714 0 1 1 0 102.171429z m0 354.845714h-73.142857a51.085714 51.085714 0 1 1 0-102.171429h73.142857a51.085714 51.085714 0 1 1 0 102.171429z m0 337.222857h-73.142857a51.085714 51.085714 0 1 1 0-102.171429h73.142857a51.085714 51.085714 0 1 1 0 102.171429z m0 0" p-id="26497" ></path></svg>