<svg t="1597902528901" class="icon" viewBox="0 0 1024 1024" version="1.1" xmlns="http://www.w3.org/2000/svg" p-id="23710" xmlns:xlink="http://www.w3.org/1999/xlink" width="200" height="200"><defs><style type="text/css"></style></defs><path d="M852.195556 910.392889a56.775111 56.775111 0 0 1-57.287112 56.832l-676.750222-5.347556C81.351111 961.877333 56.888889 937.642667 56.888889 901.290667V174.364444C56.888889 137.955556 81.351111 113.777778 118.158222 113.777778H240.64v84.764444c0 24.291556 24.462222 48.526222 55.125333 54.613334h42.894223a54.613333 54.613333 0 0 0 55.182222-54.613334V113.777778h122.481778v84.764444c0 24.291556 24.462222 48.526222 55.182222 54.613334h42.837333a54.613333 54.613333 0 0 0 55.182222-54.613334V113.777778h122.481778C828.871111 113.777778 853.333333 138.012444 853.333333 174.364444l-1.137777 736.028445zM179.484444 381.724444v40.504889c0 6.769778 6.144 13.539556 12.231112 13.539556h526.904888c6.087111 0 12.231111-6.769778 12.231112-13.539556V381.724444c0-6.769778-6.144-13.482667-12.231112-13.482666H191.658667c-6.087111 0-12.231111 6.712889-12.231111 13.482666z m0 180.508445v43.008c0 6.144 13.482667 12.231111 27.022223 12.231111h486.4c13.482667 0 27.022222-6.087111 27.022222-12.231111v-43.008c0-6.144-13.539556-12.288-27.022222-12.288h-486.4c-13.539556 0-27.022222 6.144-27.022223 12.288zM340.309333 56.888889c6.200889 0 6.200889 0 0 5.688889v159.288889s0 5.688889-6.257777 5.688889H290.702222S284.444444 227.555556 284.444444 221.866667V62.577778c0-5.688889 6.257778-5.688889 12.401778-5.688889h43.463111z m279.267556 0C625.777778 56.888889 625.777778 56.888889 625.777778 62.577778v159.288889s0 5.688889-6.257778 5.688889h-43.406222s-6.200889 0-6.200889-5.688889V62.577778s0-5.688889 6.257778-5.688889h43.406222z" p-id="23711" ></path></svg>