<svg t="1597902345468" class="icon" viewBox="0 0 1024 1024" version="1.1" xmlns="http://www.w3.org/2000/svg" p-id="19695" xmlns:xlink="http://www.w3.org/1999/xlink" width="200" height="200"><defs><style type="text/css"></style></defs><path d="M810.665653 725.332853v-213.119733h-289.236971V341.333333h-53.631933l0.213333 170.96512L170.666453 512.255786V725.332853h54.186599v-147.029149h531.199336l-0.170666 146.815816V725.332853z" p-id="19696" ></path><path d="M169.471788 661.5036V661.332933h-87.039891A82.133231 82.133231 0 0 0 0 742.954165v199.42375C0 987.391192 36.991954 1023.999147 82.431897 1023.999147h233.429042a82.133231 82.133231 0 0 0 82.431896-81.621232v-199.42375A82.133231 82.133231 0 0 0 315.860939 661.332933H227.455716v0.170667H169.471788zM626.38855 362.66664a82.133231 82.133231 0 0 0 82.431897-81.621231V81.621658A82.133231 82.133231 0 0 0 626.345884 0.000427H392.959509a82.133231 82.133231 0 0 0-82.431897 81.621231v199.423751c0 45.013277 36.949287 81.621231 82.431897 81.621231h233.429041z m315.178273 298.666293h-88.149223v0.170667H794.879006V661.332933h-86.741225a82.133231 82.133231 0 0 0-82.431896 81.621232v199.42375c0 45.013277 36.991954 81.621231 82.431896 81.621232h233.429042A82.133231 82.133231 0 0 0 1023.99872 942.377915v-199.42375a82.133231 82.133231 0 0 0-82.431897-81.621232z" p-id="19697" ></path></svg>