<svg t="1597902067745" class="icon" viewBox="0 0 1024 1024" version="1.1" xmlns="http://www.w3.org/2000/svg" p-id="16111" xmlns:xlink="http://www.w3.org/1999/xlink" width="200" height="200"><defs><style type="text/css"></style></defs><path d="M490.090817 147.835796l-13.309317 3.685657a40.951744 40.951744 0 0 0-11.876006 6.142762 44.023125 44.023125 0 0 0-8.804625 9.62366 26.413875 26.413875 0 0 0-3.480898 13.309317 23.342494 23.342494 0 0 0 3.890416 12.899799 42.589814 42.589814 0 0 0 9.214142 10.033177 71.051276 71.051276 0 0 0 12.080765 7.576073l12.285523 5.733244z m74.122657 226.872663a37.675605 37.675605 0 0 0 9.418901-11.056971 33.170913 33.170913 0 0 0 3.480898-15.766422 32.351878 32.351878 0 0 0-19.452078-28.051944 180.392433 180.392433 0 0 0-21.909183-12.695041v77.808314a102.37936 102.37936 0 0 0 15.152145-3.890416 43.613607 43.613607 0 0 0 13.309317-6.34752z m-28.666221 266.186337h-47.094506a18.018767 18.018767 0 0 0-12.490282 5.118968l-17.814009 18.018767a17.60925 17.60925 0 0 0-2.866622 20.475872l22.52346 37.880363a17.404491 17.404491 0 0 0 14.947386 8.395108h38.289881a17.404491 17.404491 0 0 0 15.152145-8.395108l22.52346-37.880363a17.60925 17.60925 0 0 0-2.866622-20.475872l-17.814009-18.018767a18.428285 18.428285 0 0 0-12.490282-6.142762zM512 549.981924c109.750674 0 198.820718-151.726212 198.820718-293.419247S621.750674 0 512 0s-199.025476 114.869642-199.025476 256.562677S402.044567 549.981924 512 549.981924z m-128.793235-169.335462l49.55161-42.385055a113.64109 113.64109 0 0 0 23.95677 29.075738 83.951075 83.951075 0 0 0 33.375672 16.585456v-93.984253a305.500011 305.500011 0 0 1-71.051276-37.061328A78.832107 78.832107 0 0 1 389.144768 186.330436a79.855901 79.855901 0 0 1 8.804625-38.085122 90.708113 90.708113 0 0 1 22.932976-28.87098 122.855232 122.855232 0 0 1 32.556637-19.24732 151.316695 151.316695 0 0 1 37.266087-9.623659v-34.808983h45.661195v34.194706a199.230235 199.230235 0 0 1 29.894773 5.733245 120.602886 120.602886 0 0 1 24.161529 10.237936 131.25034 131.25034 0 0 1 22.113942 15.561662c7.166555 5.938003 14.947387 12.899799 23.547253 20.475872l-45.251678 44.023125c-7.98559-7.576073-16.380698-15.152145-25.185322-22.3187a69.617965 69.617965 0 0 0-29.894773-14.742628v84.974869a299.971526 299.971526 0 0 1 69.413206 35.628017 81.903488 81.903488 0 0 1 35.628017 71.256035 92.960459 92.960459 0 0 1-33.785189 77.398797 135.140756 135.140756 0 0 1-71.256034 24.775805v57.332442h-45.661195V442.278837a148.654831 148.654831 0 0 1-59.994305-18.428285 159.097526 159.097526 0 0 1-46.889747-43.20409z m575.372005 554.281856c0-136.369308-107.907846-264.753026-262.295921-323.928296l-115.893436 368.565698-36.651811-225.234593h-62.860928l-36.651811 225.234593-116.507712-368.565698C173.329076 670.175293 65.42123 798.559011 65.42123 934.928318V941.890115c0 90.298596 93.574735 81.903488 446.57877 81.903488 375.732252 0 446.57877 8.190349 446.57877-81.903488v-6.552279z" p-id="16112" ></path></svg>