<svg t="1597901859135" class="icon" viewBox="0 0 1024 1024" version="1.1" xmlns="http://www.w3.org/2000/svg" p-id="12083" xmlns:xlink="http://www.w3.org/1999/xlink" width="200" height="200"><defs><style type="text/css"></style></defs><path d="M638.498133 961.194667H125.610667a41.1648 41.1648 0 0 1-41.028267-40.96V407.552c0-22.596267 18.432-41.096533 40.96-41.096533h512.887467c22.528 0 40.96 18.500267 40.96 41.028266v512.887467c0 22.528-18.432 40.891733-40.96 40.891733m310.613333-272.5888V154.350933c0-16.657067-8.465067-20.343467-19.0464-8.055466L780.970667 320.1024c-10.4448 12.288-19.114667 35.84-19.114667 52.497067v534.391466c0 16.657067 8.533333 20.2752 19.114667 8.055467l149.0944-173.8752c10.4448-12.288 19.114667-35.84 19.114666-52.497067M161.109333 278.869333h470.357334c40.7552 0 79.4624-18.2272 105.2672-49.7664l145.271466-150.869333a10.786133 10.786133 0 0 0-7.099733-18.2272L428.714667 61.508267c-33.245867 0-89.9072 12.151467-114.824534 34.133333L145.476267 237.294933a23.7568 23.7568 0 0 0 15.701333 41.642667" p-id="12084" ></path></svg>