<svg t="1597902570521" class="icon" viewBox="0 0 1024 1024" version="1.1" xmlns="http://www.w3.org/2000/svg" p-id="24088" xmlns:xlink="http://www.w3.org/1999/xlink" width="200" height="200"><defs><style type="text/css"></style></defs><path d="M860.437333 1009.92H163.562667a76.074667 76.074667 0 0 1-76.032-76.053333V90.133333A76.074667 76.074667 0 0 1 163.562667 14.08h696.874666a76.074667 76.074667 0 0 1 76.032 76.053333v843.733334a76.074667 76.074667 0 0 1-76.032 76.053333zM163.562667 72.426667a17.706667 17.706667 0 0 0-17.706667 17.706666v843.733334c0 9.813333 7.914667 17.706667 17.706667 17.706666h696.874666a17.706667 17.706667 0 0 0 17.706667-17.706666V90.133333a17.706667 17.706667 0 0 0-17.706667-17.706666H163.562667z" p-id="24089" ></path><path d="M308.053333 350.229333h199.978667v58.325334H308.053333v-58.325334z m0.405334-133.226666h266.666666v58.325333h-266.666666v-58.325333z m-95.424-172.8h58.346666v935.616H213.034667V44.16zM734.933333 913.130667h-52.074666a76.074667 76.074667 0 0 1-76.053334-76.053334V351.061333l102.101334-102.08 102.08 102.08V837.12a76.138667 76.138667 0 0 1-76.053334 76.053333z m-69.781333-537.92v461.866666c0 9.813333 7.893333 17.706667 17.706667 17.706667h52.074666a17.706667 17.706667 0 0 0 17.706667-17.706667V375.253333l-43.733333-43.733333-43.754667 43.733333z" p-id="24090" ></path></svg>