<svg t="1597901889115" class="icon" viewBox="0 0 1024 1024" version="1.1" xmlns="http://www.w3.org/2000/svg" p-id="12881" xmlns:xlink="http://www.w3.org/1999/xlink" width="200" height="200"><defs><style type="text/css"></style></defs><path d="M1003.776 215.553L808.447 20.224c-26.965-26.965-70.68-26.965-97.645 0L515.473 215.553c-26.965 26.965-26.965 70.68 0 97.645l195.329 195.329c26.965 26.965 70.678 26.965 97.645 0l195.329-195.329c26.965-26.966 26.965-70.68 0-97.645z m-244.15 244.149L564.298 264.374 759.626 69.047l195.327 195.327-195.327 195.328zM345.284 57.204H69.057C30.904 57.204 0 88.107 0 126.261v276.227c0 38.154 30.903 69.058 69.057 69.058h276.227c38.154 0 69.057-30.903 69.057-69.058V126.26c0-38.153-30.903-69.056-69.057-69.056z m0 552.455H69.057C30.904 609.659 0 640.56 0 678.716v276.227C0 993.096 30.903 1024 69.057 1024h276.227c38.154 0 69.057-30.903 69.057-69.057V678.716c0-38.155-30.903-69.057-69.057-69.057z m552.455 0H621.512c-38.154 0-69.058 30.902-69.058 69.057v276.227c0 38.153 30.903 69.057 69.058 69.057h276.227c38.153 0 69.057-30.903 69.057-69.057V678.716c0-38.155-30.903-69.057-69.057-69.057z"  p-id="12882"></path></svg>