<svg t="1597901597848" class="icon" viewBox="0 0 1024 1024" version="1.1" xmlns="http://www.w3.org/2000/svg" p-id="8241" xmlns:xlink="http://www.w3.org/1999/xlink" width="200" height="200"><defs><style type="text/css"></style></defs><path d="M89.1 885.5c0 26.7 21.6 48.3 48.3 48.3h48.3v-169H89.1v120.7z m0-169h96.7v-169H89.1v169z m0-217.3h96.7v-169H89.1v169z m0-338.1v120.7h96.7v-169h-48.3c-26.7 0-48.4 21.6-48.4 48.3z m821.7-48.3H234.1v821.1h676.7c26.7 0 48.3-21.6 48.3-48.3V161.1c0-26.7-21.6-48.3-48.3-48.3zM717.5 472.3H596.6V569h96.7c13.3 0 24.2 10.8 24.2 24.2s-10.8 24.2-24.2 24.2h-96.7v120.8c0 13.3-10.8 24.2-24.2 24.2-13.3 0-24.2-10.8-24.2-24.2V617.3h-96.7c-13.3 0-24.2-10.8-24.2-24.2s10.8-24.2 24.2-24.2h96.7v-96.7H427.5c-13.3 0-24.2-10.8-24.2-24.2 0-13.3 10.8-24.2 24.2-24.2h100.9L446 346.9c-9.7-9.1-10.2-24.4-1.1-34.2 9.1-9.7 24.4-10.2 34.2-1.1l89.7 84 83.2-85c8.9-9.1 23.9-9.6 33.5-1.1 9.5 8.5 10 22.9 1.1 32L605.8 424h111.7c13.3 0 24.2 10.8 24.2 24.2-0.1 13.3-10.9 24.1-24.2 24.1z" p-id="8242" ></path></svg>