<svg t="1597902628858" class="icon" viewBox="0 0 1024 1024" version="1.1" xmlns="http://www.w3.org/2000/svg" p-id="25706" xmlns:xlink="http://www.w3.org/1999/xlink" width="200" height="200"><defs><style type="text/css"></style></defs><path d="M508.49 336.64c-93.47 0-169.51 76.04-169.51 169.51 0 93.47 76.04 169.51 169.51 169.51S678 599.62 678 506.15c0.01-93.46-76.04-169.51-169.51-169.51z m0 254.52c-46.94 0-85-38.06-85-85s38.06-85 85-85 85 38.06 85 85-38.05 85-85 85z" p-id="25707" ></path><path d="M958.49 505.68c0-31.96-3.04-63.23-8.92-93.31h-0.19c-1.8-18.11-14.99-32.65-31.97-35.62l0.09-0.4c-58.25-16.13-101.13-71.44-101.13-137.24 0-12.67 1.61-24.93 4.55-36.61 1.61-4.45 2.47-9.3 2.47-14.35 0-14.25-7.02-26.72-17.65-33.94l0.38-0.49c-46.2-42.55-100.84-75.3-160.89-95.29l-0.09 0.3c-15.56-6.13-33.2-1.09-43.64 12.27l-0.38-0.3C559 115.62 491.74 127.4 436.81 95.04a138.32 138.32 0 0 1-28.27-22.16 39.695 39.695 0 0 0-10.72-9.3c-11.48-6.83-24.95-6.73-36.05-1.19l-0.19-0.49c-59.86 21.47-114.12 55.9-159.57 100.03-1.61 1.29-3.04 2.77-4.36 4.35-0.47 0.49-0.95 0.99-1.42 1.38l0.09 0.2c-8.73 11.18-11.29 26.62-6.07 40.37l-0.38 0.2c16.98 60.26-6.17 127.24-60.15 161.28-10.34 6.53-21.25 11.48-32.44 14.84-4.46 0.89-8.92 2.57-13 5.15-11.29 7.12-17.83 19.29-18.59 32.06-4.74 27.21-7.21 55.21-7.21 83.81 0 31.37 2.94 62.14 8.63 91.82 0.19 4.65 1.14 9.1 2.75 13.26l0.85 3.86 0.76-0.2c5.5 10.98 15.65 19.1 27.8 21.27l-0.09 0.4c58.25 16.13 101.13 71.44 101.13 137.24 0 12.67-1.61 24.93-4.55 36.61-1.61 4.45-2.47 9.3-2.47 14.35 0 14.94 7.78 27.9 19.26 34.93 43.73 39.88 94.87 71.04 150.93 90.93l0.28-0.59 2.28 1.48c16.7 9.8 37.38 5.34 49.14-9.6l0.38 0.3c42.12-44.92 109.38-56.7 164.31-24.34a138.32 138.32 0 0 1 28.27 22.16c2.94 3.66 6.55 6.83 10.72 9.3 12.14 7.22 26.47 6.73 37.85 0.2 57.77-20.98 110.24-53.93 154.54-96.08 15.75-10.59 21.91-31.17 15.18-48.88l0.38-0.2c-16.98-60.26 6.17-127.24 60.15-161.28 10.34-6.53 21.25-11.48 32.44-14.84 4.46-0.89 8.92-2.57 13-5.15 11-6.93 17.46-18.6 18.59-31.07 4.94-27.78 7.5-56.48 7.5-85.77z m-450 197.51c-108.64 0-197.03-88.39-197.03-197.03s88.39-197.03 197.03-197.03 197.03 88.39 197.03 197.03c0.01 108.64-88.38 197.03-197.03 197.03z" p-id="25708" ></path></svg>