<svg t="1597902114267" class="icon" viewBox="0 0 1024 1024" version="1.1" xmlns="http://www.w3.org/2000/svg" p-id="16931" xmlns:xlink="http://www.w3.org/1999/xlink" width="200" height="200"><defs><style type="text/css"></style></defs><path d="M865.828 404.375H57.591v-53.851h754.387V188.732a53.67 53.67 0 0 0-53.61-53.73h-108.06v107.76h-53.85v-107.82H273.112v107.82h-53.85v-107.82H111.14c-29.584 0.034-53.549 24.026-53.549 53.61v647.227c0 29.516 24.275 53.61 54.212 53.61h309.308v53.85H111.803C52.279 943.406 3.881 895.304 3.681 835.78V188.551c0-59.332 48.248-107.46 107.46-107.46h108.122v-48.91a5 5 0 0 1 5-5h48.85v53.91h323.343v-53.91h53.85v53.91H758.43c59.332 0 107.4 48.189 107.4 107.64v177.514l-0.002 38.13z m-700.476 107.76h215.522v53.91H165.352v-53.91z m0 161.672h215.522v53.91H165.352v-53.91z" p-id="16932" ></path><path d="M758.068 943.179c119.03 0 215.522-96.492 215.522-215.522 0-119.03-96.492-215.522-215.522-215.522-119.046 0-215.552 96.506-215.552 215.552 0 119.046 96.506 215.552 215.552 215.552v-0.06z m0 53.91c-97.206 1.45-187.656-49.577-236.683-133.527-49.026-83.95-49.026-187.8 0-271.75 49.027-83.95 139.477-134.978 236.683-133.527 147.219 2.197 265.411 122.167 265.411 269.402 0 147.235-118.192 267.205-265.411 269.402z" p-id="16933"></path><path d="M785.053 566.046h-53.91v188.596h188.536v-53.91H785.053z" p-id="16934" ></path></svg>