<svg t="1597899860662" class="icon" viewBox="0 0 1246 1024" version="1.1" xmlns="http://www.w3.org/2000/svg" p-id="5929" xmlns:xlink="http://www.w3.org/1999/xlink" width="243.359375" height="200"><defs><style type="text/css"></style></defs><path d="M1242.210301 794.818365c-14.588645-98.281395-222.7541-145.886446-285.118422-191.443968a45.813463 45.813463 0 0 1-11.346724-28.153524 57.842696 57.842696 0 0 1 6.910411-34.125485 262.083721 262.083721 0 0 0 109.628119-230.517648 194.94183 194.94183 0 0 0-195.112458-194.856516h-8.531371a211.833945 211.833945 0 0 0-79.938947 14.503331c31.054191 96.404494 68.250969 273.003876-88.555633 391.931189-61.511186 85.313711 143.412348 135.136919 111.590335 121.82798 185.472008 77.379536 235.380529 136.501938 249.030723 198.183751 11.346724 51.188227 17.745252 82.583672 17.745251 82.583672a691.041061 691.041061 0 0 0 174.893108-44.704384 265.155014 265.155014 0 0 0-1.194392-85.228398zM608.585369 571.125814a73.028537 73.028537 0 0 1 8.531371-42.059659A303.20493 303.20493 0 0 0 751.656462 242.241458 240.92592 240.92592 0 0 0 512.095561 0.035832h-10.152331a235.295215 235.295215 0 0 0-239.390274 242.205626A326.836828 326.836828 0 0 0 396.922051 528.980841a74.649497 74.649497 0 0 1 16.636174 48.884757c0 7.166352-13.138312 21.669683-21.925624 28.153524C314.850261 662.75274 40.054797 719.912927 22.224232 842.082161c-13.820821 51.870736-95.466043 134.02784 176.087499 167.12956a2689.941313 2689.941313 0 0 0 313.698516 14.503331c629.87113 0 499.597093-113.296608 481.937155-179.755989-17.830566-122.169234-295.185441-181.206323-371.626526-237.939941a57.586755 57.586755 0 0 1-13.735507-34.893308z" p-id="5930" ></path></svg>