<svg t="1597901953922" class="icon" viewBox="0 0 1024 1024" version="1.1" xmlns="http://www.w3.org/2000/svg" p-id="14558" xmlns:xlink="http://www.w3.org/1999/xlink" width="200" height="200"><defs><style type="text/css"></style></defs><path d="M933.888 233.984L542.72 7.68c-20.48-10.24-40.96-10.24-61.952 0L90.112 233.984c-20.48 10.24-30.72 30.72-30.72 51.712v452.608c0 20.48 10.24 40.96 30.72 51.712L481.28 1016.32c20.48 10.24 40.96 10.24 61.952 0l391.168-226.304c20.48-10.24 30.72-30.72 30.72-51.712V285.696c-5.632-20.48-15.872-41.472-31.232-51.712zM471.04 738.304c0 10.24-10.24 20.48-20.48 20.48H285.696c-10.24 0-20.48-10.24-20.48-20.48V573.44c0-10.24 10.24-20.48 20.48-20.48H450.56c10.24 0 20.48 10.24 20.48 20.48v164.864z m287.744 0c0 10.24-10.24 20.48-20.48 20.48H573.44c-10.24 0-20.48-10.24-20.48-20.48V573.44c0-10.24 10.24-20.48 20.48-20.48h164.864c10.24 0 20.48 10.24 20.48 20.48v164.864z m0-288.256c0 10.24-10.24 20.48-20.48 20.48H573.44c-10.24 0-20.48-10.24-20.48-20.48V285.696c0-10.24 10.24-20.48 20.48-20.48h164.864c10.24 0 20.48 10.24 20.48 20.48v164.352z" p-id="14559" ></path></svg>