<svg t="1597901537852" class="icon" viewBox="0 0 1024 1024" version="1.1" xmlns="http://www.w3.org/2000/svg" p-id="7411" xmlns:xlink="http://www.w3.org/1999/xlink" width="200" height="200"><defs><style type="text/css"></style></defs><path d="M622.826 702.736c-22.11-3.518-22.614-64.314-22.614-64.314s64.966-64.316 79.126-150.802c38.09 0 61.618-91.946 23.522-124.296C704.452 329.27 751.822 96 512 96s-192.45 233.27-190.864 267.324c-38.094 32.35-14.57 124.296 23.522 124.296 14.158 86.486 79.128 150.802 79.128 150.802s-0.504 60.796-22.614 64.314C329.952 714.068 64 831.372 64 960l896 0C960 831.372 694.046 714.068 622.826 702.736L622.826 702.736z" p-id="7412" ></path></svg>