<svg t="1597901923921" class="icon" viewBox="0 0 1024 1024" version="1.1" xmlns="http://www.w3.org/2000/svg" p-id="13688" xmlns:xlink="http://www.w3.org/1999/xlink" width="200" height="200"><defs><style type="text/css"></style></defs><path d="M96 741.7a128 128 0 1 0 256 0 128 128 0 1 0-256 0z m576 0a128 128 0 1 0 256 0 128 128 0 1 0-256 0z m-288-512a128 128 0 1 0 256 0 128 128 0 1 0-256 0z m368 326.1c15.3-3.9 31.4-6 48-6s32.7 2.1 48 6V326.5l-146.1-65c-5.5 32.8-19.3 62.8-39.1 87.7l89.2 39.7v166.9z m-528-6.1c16.6 0 32.7 2.1 48 6V387.1l89.3-39.1c-19.6-25.1-33.2-55.1-38.4-88L176 324.3v231.4c15.3-3.9 31.4-6 48-6z m386.6 223.7L512 817.2l-98.6-43.8c-5.4 32.8-19.2 62.8-39 87.7L512 922.3l137.6-61.2c-19.8-24.9-33.5-54.9-39-87.7z" p-id="13689" ></path></svg>