<svg t="1597901629155" class="icon" viewBox="0 0 1024 1024" version="1.1" xmlns="http://www.w3.org/2000/svg" p-id="9070" xmlns:xlink="http://www.w3.org/1999/xlink" width="200" height="200"><defs><style type="text/css"></style></defs><path d="M501.253373 0c143.8001 0 259.966017 114.630685 259.966017 255.872064s-116.677661 255.872064-259.966017 255.872064C357.453273 511.744128 240.775612 397.113443 240.775612 255.872064S357.453273 0 501.253373 0z m0 0c143.8001 0 259.966017 114.630685 259.966017 255.872064s-116.677661 255.872064-259.966017 255.872064C357.453273 511.744128 240.775612 397.113443 240.775612 255.872064S357.453273 0 501.253373 0zM403.510245 597.205397h216.97951c185.763118 0 336.215892 147.894053 336.215892 330.586707v21.493253c0 72.155922-150.452774 74.714643-336.215892 74.714643H403.510245c-185.763118 0-336.215892 0-336.215892-74.714643v-21.493253c0.511744-182.692654 150.964518-330.586707 336.215892-330.586707z" p-id="9071" ></path></svg>